<?xml version="1.0" encoding="utf-8"?>
<!-- Generator: Adobe Illustrator 28.0.0, SVG Export Plug-In . SVG Version: 6.00 Build 0)  -->
<svg version="1.1" id="Calque_1" xmlns="http://www.w3.org/2000/svg" xmlns:xlink="http://www.w3.org/1999/xlink" x="0px" y="0px"
	 viewBox="0 0 256 256" style="enable-background:new 0 0 256 256;" xml:space="preserve">
<style type="text/css">
	.st0{fill:#E1DCDB;}
	.st1{fill:#F4F2F2;}
	.st2{fill:#CFC8C6;}
	.st3{fill:#8C8989;}
	.st4{fill:#3D3A39;}
	.st5{fill:#4C4A48;}
	.st6{fill:#312F2D;}
	.st7{fill:#252321;}
	.st8{fill:#161412;}
	.st9{fill:#E9B123;}
	.st10{fill:#B47100;}
	.st11{fill:#FFE054;}
	.st12{fill:#CDA081;}
	.st13{fill:#8C6951;}
	.st14{fill:#644B39;}
	.st15{fill:#EA5297;}
	.st16{fill:#B9348B;}
	.st17{fill:#ED6EA7;}
</style>
<g>
	<g>
		<polygon class="st0" points="240,192 240,176 224,176 224,160 208,160 208,144 192,144 192,128 176,128 176,112 160,112 160,96 
			144,96 144,80 128,80 128,64 112,64 112,48 96,48 96,32 80,32 80,16 64,16 64,0 48,0 48,16 32,16 32,32 16,32 16,48 0,48 0,64 
			16,64 16,80 32,80 32,96 48,96 48,112 64,112 64,128 80,128 80,144 96,144 96,160 112,160 112,176 128,176 128,192 144,192 
			144,208 160,208 160,224 176,224 176,240 192,240 192,256 208,256 208,240 224,240 224,224 240,224 240,208 256,208 256,192 		"/>
		<rect x="48" class="st1" width="16" height="16"/>
		<rect x="48" y="16" class="st2" width="16" height="16"/>
		<rect x="64" y="16" class="st1" width="16" height="16"/>
		<rect x="64" y="32" class="st2" width="16" height="16"/>
		<rect x="80" y="48" class="st2" width="16" height="16"/>
		<rect x="96" y="64" class="st2" width="16" height="16"/>
		<rect x="112" y="80" class="st2" width="16" height="16"/>
		<rect x="128" y="96" class="st2" width="16" height="16"/>
		<rect x="144" y="112" class="st2" width="16" height="16"/>
		<rect x="160" y="128" class="st3" width="16" height="16"/>
		<rect x="128" y="160" class="st3" width="16" height="16"/>
		<rect x="144" y="160" class="st2" width="16" height="16"/>
		<rect x="176" y="144" class="st2" width="16" height="16"/>
		<rect x="192" y="160" class="st2" width="16" height="16"/>
		<rect x="208" y="176" class="st2" width="16" height="16"/>
		<rect x="224" y="192" class="st2" width="16" height="16"/>
		<rect x="80" y="32" class="st1" width="16" height="16"/>
		<rect x="96" y="48" class="st1" width="16" height="16"/>
		<rect x="112" y="64" class="st1" width="16" height="16"/>
		<rect x="128" y="80" class="st1" width="16" height="16"/>
		<rect x="144" y="96" class="st1" width="16" height="16"/>
		<rect x="160" y="112" class="st1" width="16" height="16"/>
		<rect x="176" y="128" class="st0" width="16" height="16"/>
		<rect x="64" y="48" class="st4" width="16" height="16"/>
		<rect x="80" y="32" class="st5" width="16" height="16"/>
		<rect x="112" y="64" class="st5" width="16" height="16"/>
		<rect x="144" y="96" class="st5" width="16" height="16"/>
		<rect x="176" y="128" class="st5" width="16" height="16"/>
		<rect x="208" y="160" class="st5" width="16" height="16"/>
		<rect x="96" y="80" class="st4" width="16" height="16"/>
		<rect x="128" y="112" class="st4" width="16" height="16"/>
		<rect x="160" y="144" class="st6" width="16" height="16"/>
		<rect x="192" y="176" class="st4" width="16" height="16"/>
		<rect x="48" y="48" class="st7" width="16" height="16"/>
		<rect x="80" y="80" class="st7" width="16" height="16"/>
		<rect x="112" y="112" class="st7" width="16" height="16"/>
		<rect x="144" y="144" class="st8" width="16" height="16"/>
		<rect x="176" y="176" class="st7" width="16" height="16"/>
		<rect x="192" y="144" class="st1" width="16" height="16"/>
		<rect x="224" y="176" class="st1" width="16" height="16"/>
		<rect x="240" y="192" class="st1" width="16" height="16"/>
		<rect x="224" y="208" class="st3" width="16" height="16"/>
		<rect x="208" y="224" class="st3" width="16" height="16"/>
		<rect x="192" y="240" class="st3" width="16" height="16"/>
		<rect x="176" y="224" class="st3" width="16" height="16"/>
		<rect x="160" y="208" class="st3" width="16" height="16"/>
		<rect x="144" y="192" class="st3" width="16" height="16"/>
		<rect x="128" y="176" class="st5" width="16" height="16"/>
		<rect x="112" y="160" class="st3" width="16" height="16"/>
		<rect x="96" y="144" class="st3" width="16" height="16"/>
		<rect x="80" y="128" class="st3" width="16" height="16"/>
		<rect x="64" y="112" class="st3" width="16" height="16"/>
		<rect x="48" y="96" class="st3" width="16" height="16"/>
		<rect x="32" y="80" class="st3" width="16" height="16"/>
		<rect x="16" y="64" class="st3" width="16" height="16"/>
		<rect x="32" y="16" class="st1" width="16" height="16"/>
		<rect x="16" y="32" class="st1" width="16" height="16"/>
		<rect x="32" y="32" class="st2" width="16" height="16"/>
		<rect x="16" y="48" class="st2" width="16" height="16"/>
		<rect y="48" class="st1" width="16" height="16"/>
	</g>
	<g>
		<polygon class="st9" points="240,16 192,16 192,32 176,32 176,48 160,48 160,64 144,64 144,80 128,80 128,96 112,96 112,112 
			96,112 96,128 80,128 80,144 64,144 64,160 48,160 48,176 32,176 32,192 16,192 16,208 0,208 0,224 16,224 16,240 32,240 32,256 
			48,256 48,240 64,240 64,224 80,224 80,208 96,208 96,192 112,192 112,176 128,176 128,160 144,160 144,144 160,144 160,128 
			176,128 176,112 192,112 192,96 208,96 208,80 224,80 224,64 240,64 		"/>
		<rect x="48" y="224" class="st10" width="16" height="16"/>
		<rect x="32" y="240" class="st10" width="16" height="16"/>
		<rect x="16" y="224" class="st10" width="16" height="16"/>
		<rect x="64" y="208" class="st10" width="16" height="16"/>
		<rect x="80" y="192" class="st10" width="16" height="16"/>
		<rect x="96" y="176" class="st10" width="16" height="16"/>
		<rect x="112" y="160" class="st10" width="16" height="16"/>
		<rect x="128" y="144" class="st10" width="16" height="16"/>
		<rect x="144" y="128" class="st10" width="16" height="16"/>
		<rect x="160" y="112" class="st10" width="16" height="16"/>
		<rect x="176" y="96" class="st10" width="16" height="16"/>
		<rect x="192" y="80" class="st10" width="16" height="16"/>
		<rect x="208" y="48" class="st10" width="16" height="32"/>
		<rect x="176" y="32" class="st11" width="32" height="16"/>
		<rect x="192" y="32" transform="matrix(-1 -1.224647e-16 1.224647e-16 -1 384 80)" class="st11" width="0" height="16"/>
		<rect x="160" y="48" class="st11" width="16" height="16"/>
		<rect x="144" y="64" class="st11" width="16" height="16"/>
		<rect x="128" y="80" class="st11" width="16" height="16"/>
		<rect x="160" y="64" class="st11" width="16" height="16"/>
		<rect x="144" y="80" class="st11" width="16" height="16"/>
		<rect x="128" y="96" class="st11" width="16" height="16"/>
		<rect x="176" y="48" class="st11" width="16" height="16"/>
		<rect x="112" y="96" class="st11" width="16" height="16"/>
		<rect x="96" y="112" class="st11" width="16" height="16"/>
		<rect x="112" y="112" class="st11" width="16" height="16"/>
		<rect x="96" y="128" class="st11" width="16" height="16"/>
		<rect x="80" y="144" class="st11" width="16" height="16"/>
		<rect x="64" y="160" class="st11" width="16" height="16"/>
		<rect x="48" y="176" class="st11" width="16" height="16"/>
		<rect x="80" y="128" class="st11" width="16" height="16"/>
		<rect x="64" y="144" class="st11" width="16" height="16"/>
		<rect x="48" y="160" class="st11" width="16" height="16"/>
		<rect x="32" y="176" class="st11" width="16" height="16"/>
		<rect x="16" y="192" class="st11" width="16" height="16"/>
		<rect y="208" class="st11" width="16" height="16"/>
		<rect x="208" class="st4" width="32" height="16"/>
		<rect x="192" y="16" class="st12" width="16" height="16"/>
		<rect x="224" y="32" class="st13" width="16" height="16"/>
		<rect x="208" y="32" class="st13" width="16" height="16"/>
		<rect x="208" y="16" class="st13" width="16" height="16"/>
		<rect x="224" y="48" class="st14" width="16" height="16"/>
		<rect x="224" y="16" class="st7" width="32" height="16"/>
		<rect x="240" class="st4" width="16" height="16"/>
		<rect x="16" y="192" class="st0" width="32" height="16"/>
		<rect x="32" y="208" class="st2" width="32" height="16"/>
		<rect x="48" y="224" class="st3" width="16" height="16"/>
		<rect x="32" y="224" class="st15" width="16" height="16"/>
		<rect x="16" y="240" class="st16" width="32" height="16"/>
		<rect y="224" class="st16" width="16" height="16"/>
		<rect x="16" y="224" class="st17" width="16" height="16"/>
		<rect x="16" y="208" class="st17" width="16" height="16"/>
		<rect y="208" class="st17" width="16" height="16"/>
		<rect x="240" y="16" class="st8" width="16" height="32"/>
	</g>
</g>
</svg>
