<?xml version="1.0" encoding="utf-8"?>
<!-- Generator: Adobe Illustrator 28.0.0, SVG Export Plug-In . SVG Version: 6.00 Build 0)  -->
<svg version="1.1" id="Calque_1" xmlns="http://www.w3.org/2000/svg" xmlns:xlink="http://www.w3.org/1999/xlink" x="0px" y="0px"
	 viewBox="0 0 256 256" style="enable-background:new 0 0 256 256;" xml:space="preserve">
<style type="text/css">
	.st0{fill:#4C4A48;}
	.st1{fill:#8C8989;}
	.st2{fill:#E1DCDB;}
	.st3{fill:#CFC8C6;}
	.st4{fill:#312F2D;}
	.st5{fill:#3D3A39;}
	.st6{fill:#252321;}
	.st7{fill:#161412;}
	.st8{fill:#EA5297;}
</style>
<g>
	<polygon class="st0" points="32,240 32,224 48,224 48,208 64,208 64,192 192,192 192,208 208,208 208,224 224,224 224,240 	"/>
	<rect y="240" class="st1" width="256" height="16"/>
	<rect x="16" y="224" class="st2" width="16" height="16"/>
	<rect x="32" y="208" class="st2" width="16" height="16"/>
	<rect x="48" y="192" class="st2" width="16" height="16"/>
	<rect x="64" y="176" class="st3" width="128" height="16"/>
	<rect x="224" y="224" class="st1" width="16" height="16"/>
	<rect x="208" y="208" class="st1" width="16" height="16"/>
	<rect x="192" y="192" class="st1" width="16" height="16"/>
	<rect x="112" y="192" class="st4" width="16" height="16"/>
	<rect x="80" y="192" class="st4" width="16" height="16"/>
	<rect x="96" y="208" class="st4" width="16" height="16"/>
	<rect x="80" y="224" class="st4" width="16" height="16"/>
	<rect x="128" y="208" class="st4" width="16" height="16"/>
	<rect x="112" y="224" class="st4" width="16" height="16"/>
	<rect x="64" y="208" class="st4" width="16" height="16"/>
	<rect x="48" y="224" class="st4" width="16" height="16"/>
	<rect x="144" y="192" class="st4" width="16" height="16"/>
	<rect x="160" y="208" class="st4" width="16" height="16"/>
	<rect x="176" y="192" class="st4" width="16" height="16"/>
	<rect x="176" y="224" class="st4" width="16" height="16"/>
	<rect x="144" y="224" class="st4" width="16" height="16"/>
	<rect x="208" y="224" class="st4" width="16" height="16"/>
	<rect x="192" y="208" class="st4" width="16" height="16"/>
	<rect x="96" y="160" class="st0" width="32" height="16"/>
	<rect x="128" y="160" class="st5" width="32" height="16"/>
	<rect y="16" class="st3" width="16" height="128"/>
	<rect x="224" y="16" class="st4" width="16" height="112"/>
	<rect x="240" y="16" class="st1" width="16" height="128"/>
	<rect x="16" y="144" class="st1" width="224" height="16"/>
	<rect x="16" class="st3" width="224" height="16"/>
	<rect x="16" y="128" class="st4" width="224" height="16"/>
	<rect x="16" y="32" class="st6" width="16" height="112"/>
	<rect x="16" y="16" class="st6" width="224" height="16"/>
	<rect x="32" y="32" class="st7" width="192" height="96"/>
	<rect x="48" y="48" class="st8" width="32" height="16"/>
	<rect x="80" y="32" class="st8" width="32" height="16"/>
	<rect x="112" y="48" class="st8" width="48" height="16"/>
	<rect x="48" y="80" class="st8" width="16" height="16"/>
	<rect x="64" y="96" class="st8" width="16" height="16"/>
	<rect x="80" y="80" class="st8" width="48" height="16"/>
	<rect x="160" y="80" class="st8" width="48" height="16"/>
	<rect x="176" y="48" class="st8" width="32" height="16"/>
	<rect x="128" y="96" class="st8" width="32" height="16"/>
</g>
</svg>
