<?xml version="1.0" encoding="utf-8"?>
<!-- Generator: Adobe Illustrator 28.5.0, SVG Export Plug-In . SVG Version: 9.03 Build 54727)  -->
<svg version="1.1" id="Calque_1" xmlns="http://www.w3.org/2000/svg" xmlns:xlink="http://www.w3.org/1999/xlink" x="0px" y="0px"
	 viewBox="0 0 256 256" style="enable-background:new 0 0 256 256;" xml:space="preserve">
<style type="text/css">
	.st0{fill:#4C4A48;}
	.st1{fill:#252321;}
	.st2{fill:#161412;}
	.st3{fill:#312F2D;}
	.st4{fill:#B9348B;}
	.st5{fill:#EA5297;}
	.st6{fill:#ED6EA7;}
	.st7{fill:#E1DCDB;}
	.st8{fill:#CFC8C6;}
	.st9{fill:#F4F2F2;}
	.st10{fill:#8C8989;}
</style>
<g>
	<g>
		<polygon class="st0" points="160.04,48 160.04,32 144.04,32 144.04,16 112.04,16 112.04,32 96.04,32 96.04,48 80.04,48 80.04,96 
			96.04,96 96.04,112 160.04,112 160.04,96 176.04,96 176.04,48 		"/>
		<rect x="112.04" class="st1" width="32" height="16"/>
		<polygon class="st1" points="96.04,32 112.04,32 112.04,16 96.04,16 80.04,16 80.04,48 96.04,48 		"/>
		<rect x="96.04" y="112" class="st1" width="64" height="16"/>
		<rect x="160.04" y="96" class="st1" width="16" height="16"/>
		<rect x="176.04" y="96" class="st2" width="16" height="16"/>
		<rect x="160.04" y="112" class="st2" width="16" height="16"/>
		<rect x="96.04" y="128" class="st2" width="64" height="16"/>
		<rect x="64.04" y="96" class="st2" width="16" height="16"/>
		<rect x="80.04" y="112" class="st2" width="16" height="16"/>
		<rect x="80.04" y="96" class="st1" width="16" height="16"/>
		<polygon class="st1" points="160.04,32 160.04,48 176.04,48 176.04,16 160.04,16 144.04,16 144.04,32 		"/>
		<rect x="176.04" y="48" class="st1" width="16" height="48"/>
		<rect x="64.04" y="48" class="st1" width="16" height="48"/>
	</g>
	<rect x="80.04" y="80" class="st0" width="16" height="16"/>
	<polygon class="st3" points="96.04,112 96.04,96 128.04,96 128.04,80 144.04,80 144.04,48 176.04,48 176.04,96 160.04,96 
		160.04,112 	"/>
	<rect x="128.04" y="16" class="st3" width="16" height="16"/>
	<rect x="80.04" y="80" class="st3" width="16" height="16"/>
	<rect x="144.04" y="32" class="st3" width="16" height="16"/>
	<rect x="80.04" y="16" class="st4" width="32" height="32"/>
	<rect x="160.04" y="16" class="st4" width="16" height="16"/>
	<rect x="144.04" y="48" class="st5" width="16" height="16"/>
	<rect x="64.04" y="64" class="st6" width="16" height="16"/>
	<rect x="112.04" y="96" class="st6" width="16" height="16"/>
	<rect x="160.04" y="80" class="st5" width="16" height="16"/>
	<rect x="144.04" y="96" class="st4" width="16" height="16"/>
	<rect x="144.04" y="80" class="st6" width="16" height="16"/>
	<rect x="112.04" y="112" class="st5" width="16" height="16"/>
	<rect x="96.04" y="48" class="st6" width="16" height="16"/>
	<rect x="112.04" y="32" class="st6" width="16" height="16"/>
	<rect x="96.04" y="32" class="st5" width="16" height="16"/>
	<rect x="96.04" y="112" class="st4" width="16" height="16"/>
</g>
<g>
	<rect x="64.04" y="176" class="st7" width="128" height="80"/>
	<rect x="144.04" y="176" class="st8" width="16" height="80"/>
	<rect x="176.04" y="182.67" class="st9" width="16" height="73.33"/>
	<rect x="96.04" y="176" class="st8" width="16" height="80"/>
	<rect x="64.04" y="182.67" class="st9" width="16" height="73.33"/>
	<rect x="64.04" y="160" class="st10" width="128" height="16"/>
	<rect x="176.04" y="240" class="st10" width="16" height="16"/>
	<rect x="64.04" y="240" class="st10" width="16" height="16"/>
	<rect x="80.04" y="240" class="st8" width="96" height="16"/>
	<rect x="176.04" y="224" class="st8" width="16" height="16"/>
	<rect x="64.04" y="224" class="st8" width="16" height="16"/>
	<rect x="48.04" y="128" class="st9" width="160" height="16"/>
	<rect x="208.04" y="144" class="st9" width="32" height="16"/>
	<rect x="240.04" y="160" class="st8" width="16" height="48"/>
	<rect x="208.04" y="208" class="st8" width="32" height="16"/>
	<rect x="192.04" y="192" class="st8" width="16" height="16"/>
	<rect x="16.04" y="144" class="st9" width="32" height="16"/>
	<rect x="0.04" y="160" class="st8" width="16" height="48"/>
	<rect x="16.04" y="208" class="st8" width="32" height="16"/>
	<rect x="48.04" y="192" class="st8" width="16" height="16"/>
	<rect x="32.04" y="160" class="st10" width="16" height="16"/>
	<rect x="208.04" y="160" class="st10" width="16" height="16"/>
	<rect x="48.04" y="144" class="st8" width="160" height="16"/>
	<rect x="192.04" y="160" class="st7" width="16" height="32"/>
	<rect x="224.04" y="160" class="st7" width="16" height="48"/>
	<rect x="208.04" y="192" class="st7" width="16" height="16"/>
	<rect x="48.04" y="160" class="st7" width="16" height="32"/>
	<rect x="16.04" y="160" class="st7" width="16" height="48"/>
	<rect x="32.04" y="192" class="st7" width="16" height="16"/>
	<rect x="224.04" y="176" class="st10" width="16" height="16"/>
	<rect x="208.04" y="176" class="st0" width="16" height="16"/>
	<rect x="32.04" y="176" class="st0" width="16" height="16"/>
	<rect x="176.04" y="176" class="st10" width="16" height="16"/>
	<rect x="160.04" y="160" class="st0" width="32" height="16"/>
	<rect x="64.04" y="160" class="st0" width="32" height="16"/>
	<rect x="192.04" y="192" class="st10" width="16" height="16"/>
	<rect x="48.04" y="192" class="st10" width="16" height="16"/>
	<rect x="144.04" y="176" class="st10" width="16" height="16"/>
	<rect x="96.04" y="176" class="st10" width="16" height="16"/>
	<rect x="64.04" y="176" class="st10" width="16" height="16"/>
	<rect x="80.04" y="176" class="st8" width="16" height="32"/>
	<rect x="160.04" y="176" class="st8" width="16" height="32"/>
	<rect x="112.04" y="176" class="st8" width="32" height="16"/>
	<rect x="16.04" y="176" class="st10" width="16" height="16"/>
	<rect x="240.04" y="160" class="st9" width="16" height="16"/>
	<rect x="0.04" y="160" class="st9" width="16" height="16"/>
</g>
</svg>
