<?xml version="1.0" encoding="utf-8"?>
<!-- Generator: Adobe Illustrator 28.0.0, SVG Export Plug-In . SVG Version: 6.00 Build 0)  -->
<svg version="1.1" id="Calque_1" xmlns="http://www.w3.org/2000/svg" xmlns:xlink="http://www.w3.org/1999/xlink" x="0px" y="0px"
	 viewBox="0 0 256 256" style="enable-background:new 0 0 256 256;" xml:space="preserve">
<style type="text/css">
	.st0{fill:#E1DCDB;}
	.st1{fill:#CFC8C6;}
	.st2{fill:#F4F2F2;}
	.st3{fill:#8C8989;}
	.st4{fill:#4C4A48;}
</style>
<g>
	<rect x="64.04" y="48" class="st0" width="128" height="192"/>
	<rect x="144.04" y="48" class="st1" width="16" height="192"/>
	<rect x="176.04" y="64" class="st2" width="16" height="176"/>
	<rect x="96.04" y="48" class="st1" width="16" height="192"/>
	<rect x="64.04" y="64" class="st2" width="16" height="176"/>
	<rect x="64.04" y="32" class="st3" width="128" height="16"/>
	<rect x="80.04" y="240" class="st3" width="96" height="16"/>
	<rect x="176.04" y="224" class="st3" width="16" height="16"/>
	<rect x="64.04" y="224" class="st3" width="16" height="16"/>
	<rect x="80.04" y="224" class="st1" width="96" height="16"/>
	<rect x="176.04" y="208" class="st1" width="16" height="16"/>
	<rect x="64.04" y="208" class="st1" width="16" height="16"/>
	<rect x="48.04" class="st2" width="160" height="16"/>
	<rect x="208.04" y="16" class="st2" width="32" height="16"/>
	<rect x="240.04" y="32" class="st1" width="16" height="48"/>
	<rect x="208.04" y="80" class="st1" width="32" height="16"/>
	<rect x="192.04" y="64" class="st1" width="16" height="16"/>
	<rect x="16.04" y="16" class="st2" width="32" height="16"/>
	<rect x="0.04" y="32" class="st1" width="16" height="48"/>
	<rect x="16.04" y="80" class="st1" width="32" height="16"/>
	<rect x="48.04" y="64" class="st1" width="16" height="16"/>
	<rect x="32.04" y="32" class="st3" width="16" height="16"/>
	<rect x="208.04" y="32" class="st3" width="16" height="16"/>
	<rect x="48.04" y="16" class="st1" width="160" height="16"/>
	<rect x="192.04" y="32" class="st0" width="16" height="32"/>
	<rect x="224.04" y="32" class="st0" width="16" height="48"/>
	<rect x="208.04" y="64" class="st0" width="16" height="16"/>
	<rect x="48.04" y="32" class="st0" width="16" height="32"/>
	<rect x="16.04" y="32" class="st0" width="16" height="48"/>
	<rect x="32.04" y="64" class="st0" width="16" height="16"/>
	<rect x="224.04" y="48" class="st3" width="16" height="16"/>
	<rect x="208.04" y="48" class="st4" width="16" height="16"/>
	<rect x="32.04" y="48" class="st4" width="16" height="16"/>
	<rect x="176.04" y="48" class="st3" width="16" height="16"/>
	<rect x="160.04" y="32" class="st4" width="32" height="16"/>
	<rect x="64.04" y="32" class="st4" width="32" height="16"/>
	<rect x="192.04" y="64" class="st3" width="16" height="16"/>
	<rect x="48.04" y="64" class="st3" width="16" height="16"/>
	<rect x="144.04" y="48" class="st3" width="16" height="16"/>
	<rect x="96.04" y="48" class="st3" width="16" height="16"/>
	<rect x="64.04" y="48" class="st3" width="16" height="16"/>
	<rect x="80.04" y="48" class="st1" width="16" height="32"/>
	<rect x="160.04" y="48" class="st1" width="16" height="32"/>
	<rect x="112.04" y="48" class="st1" width="32" height="16"/>
	<rect x="16.04" y="48" class="st3" width="16" height="16"/>
	<rect x="240.04" y="32" class="st2" width="16" height="16"/>
	<rect x="0.04" y="32" class="st2" width="16" height="16"/>
</g>
</svg>
