<?xml version="1.0" encoding="utf-8"?>
<!-- Generator: Adobe Illustrator 28.0.0, SVG Export Plug-In . SVG Version: 6.00 Build 0)  -->
<svg version="1.1" id="Calque_1" xmlns="http://www.w3.org/2000/svg" xmlns:xlink="http://www.w3.org/1999/xlink" x="0px" y="0px"
	 viewBox="0 0 256 256" style="enable-background:new 0 0 256 256;" xml:space="preserve">
<style type="text/css">
	.st0{fill:#E1DCDB;}
	.st1{fill:#CFC8C6;}
	.st2{fill:#F4F2F2;}
	.st3{fill:#312F2D;}
	.st4{fill:#252321;}
	.st5{fill:#EA5297;}
	.st6{fill:#3D3A39;}
</style>
<g>
	<rect x="16" y="64" class="st0" width="224" height="144"/>
	<rect x="32" y="208" class="st1" width="208" height="16"/>
	<rect x="32" y="64" class="st1" width="208" height="16"/>
	<rect x="16" y="48" class="st2" width="224" height="16"/>
	<rect x="240" y="80" class="st1" width="16" height="128"/>
	<rect x="16" y="64" class="st1" width="16" height="144"/>
	<rect y="64" class="st2" width="16" height="144"/>
	<rect x="48" y="80" class="st3" width="32" height="32"/>
	<rect x="48" y="160" class="st4" width="32" height="32"/>
	<rect x="16" y="208" class="st2" width="16" height="16"/>
	<rect x="240" y="64" class="st2" width="16" height="16"/>
	<rect x="128" y="96" class="st4" width="32" height="16"/>
	<rect x="128" y="176" class="st4" width="16" height="16"/>
	<rect x="160" y="176" class="st4" width="32" height="16"/>
	<rect x="208" y="176" class="st5" width="32" height="16"/>
	<rect x="160" y="80" class="st3" width="48" height="16"/>
	<rect x="192" y="96" class="st4" width="48" height="16"/>
	<rect x="208" y="128" class="st4" width="32" height="16"/>
	<rect x="160" y="128" class="st3" width="32" height="16"/>
	<rect x="176" y="144" class="st3" width="32" height="16"/>
	<rect x="144" y="144" class="st4" width="32" height="16"/>
	<rect x="128" y="128" class="st6" width="16" height="16"/>
	<rect x="160" y="80" class="st6" width="16" height="16"/>
	<rect x="160" y="128" class="st6" width="16" height="16"/>
	<rect x="128" y="176" class="st6" width="16" height="16"/>
	<rect x="32" y="128" class="st3" width="64" height="48"/>
	<rect x="32" y="128" class="st6" width="48" height="16"/>
	<rect x="32" y="144" class="st6" width="16" height="16"/>
	<rect x="48" y="80" class="st6" width="16" height="16"/>
	<rect x="48" y="176" class="st4" width="32" height="16"/>
	<rect x="80" y="160" class="st4" width="16" height="16"/>
	<rect x="64" y="96" class="st4" width="16" height="16"/>
</g>
</svg>
