<?xml version="1.0" encoding="utf-8"?>
<!-- Generator: Adobe Illustrator 28.0.0, SVG Export Plug-In . SVG Version: 6.00 Build 0)  -->
<svg version="1.1" id="Calque_1" xmlns="http://www.w3.org/2000/svg" xmlns:xlink="http://www.w3.org/1999/xlink" x="0px" y="0px"
	 viewBox="0 0 256 256" style="enable-background:new 0 0 256 256;" xml:space="preserve">
<style type="text/css">
	.st0{fill:#3D3A39;}
	.st1{fill:#CFC8C6;}
	.st2{fill:#E1DCDB;}
	.st3{fill:#4C4A48;}
	.st4{fill:#EA5297;}
	.st5{fill:#8C8989;}
	.st6{fill:#312F2D;}
	.st7{fill:#252321;}
	.st8{fill:#161412;}
</style>
<g>
	<rect x="0" y="80" class="st0" width="256" height="112"/>
	<rect x="16" y="64" class="st1" width="224" height="16"/>
	<rect x="128" y="48" class="st2" width="64" height="16"/>
	<rect x="208" y="48" class="st3" width="32" height="16"/>
	<rect x="32" y="112" class="st3" width="16" height="16"/>
	<rect x="48" y="96" class="st4" width="16" height="16"/>
	<rect x="176" y="80" class="st2" width="16" height="16"/>
	<rect x="128" y="80" class="st2" width="16" height="16"/>
	<rect x="32" y="48" class="st0" width="48" height="16"/>
	<rect x="16" y="192" class="st5" width="224" height="16"/>
	<rect x="0" y="176" class="st6" width="256" height="16"/>
	<rect x="0" y="80" class="st6" width="256" height="16"/>
	<rect x="112" y="80" class="st5" width="96" height="96"/>
	<rect x="144" y="176" class="st7" width="32" height="16"/>
	<rect x="144" y="64" class="st7" width="32" height="16"/>
	<rect x="192" y="80" class="st7" width="16" height="16"/>
	<rect x="128" y="80" class="st7" width="16" height="16"/>
	<rect x="128" y="160" class="st7" width="16" height="16"/>
	<rect x="176" y="80" class="st7" width="16" height="16"/>
	<rect x="208" y="96" class="st6" width="16" height="16"/>
	<rect x="96" y="96" class="st6" width="16" height="16"/>
	<rect x="208" y="144" class="st6" width="16" height="16"/>
	<rect x="224" y="112" class="st6" width="16" height="32"/>
	<rect x="80" y="112" class="st6" width="16" height="32"/>
	<rect x="96" y="144" class="st6" width="16" height="16"/>
	<rect x="112" y="80" class="st7" width="16" height="16"/>
	<rect x="112" y="160" class="st7" width="16" height="16"/>
	<rect x="192" y="96" class="st7" width="16" height="16"/>
	<rect x="112" y="96" class="st7" width="16" height="16"/>
	<rect x="112" y="144" class="st7" width="16" height="16"/>
	<rect x="192" y="160" class="st7" width="16" height="16"/>
	<rect x="176" y="160" class="st7" width="16" height="16"/>
	<rect x="192" y="144" class="st7" width="16" height="16"/>
	
		<rect x="200" y="120" transform="matrix(-1.836970e-16 1 -1 -1.836970e-16 343.9982 -87.9982)" class="st7" width="32" height="16"/>
	
		<rect x="168" y="120" transform="matrix(-1.836970e-16 1 -1 -1.836970e-16 311.9982 -55.9982)" class="st3" width="32" height="16"/>
	<rect x="88" y="120" transform="matrix(-1.836970e-16 1 -1 -1.836970e-16 231.9982 24.0018)" class="st7" width="32" height="16"/>
	
		<rect x="120" y="120" transform="matrix(-1.836970e-16 1 -1 -1.836970e-16 263.9982 -7.9982)" class="st3" width="32" height="16"/>
	
		<rect x="144" y="112" transform="matrix(-1.836970e-16 1 -1 -1.836970e-16 287.9982 -31.9982)" class="st8" width="32" height="32"/>
	
		<rect x="144" y="144" transform="matrix(-1 -3.267951e-07 3.267951e-07 -1 319.9964 304.0001)" class="st3" width="32" height="16"/>
	
		<rect x="144" y="96" transform="matrix(-1 -3.267949e-07 3.267949e-07 -1 319.9965 208.0001)" class="st3" width="32" height="16"/>
	
		<rect x="160" y="112" transform="matrix(-1 -6.535918e-07 6.535918e-07 -1 335.9954 240.0015)" class="st2" width="16" height="16"/>
	<rect x="0" y="80" class="st3" width="16" height="96"/>
	<rect x="240" y="80" class="st3" width="16" height="96"/>
</g>
</svg>
