<?xml version="1.0" encoding="utf-8"?>
<!-- Generator: Adobe Illustrator 28.0.0, SVG Export Plug-In . SVG Version: 6.00 Build 0)  -->
<svg version="1.1" id="Calque_1" xmlns="http://www.w3.org/2000/svg" xmlns:xlink="http://www.w3.org/1999/xlink" x="0px" y="0px"
	 viewBox="0 0 256 256" style="enable-background:new 0 0 256 256;" xml:space="preserve">
<style type="text/css">
	.st0{fill:#FFE054;}
	.st1{fill:#E9B123;}
	.st2{fill:#FFFBDC;}
	.st3{fill:#E4D3A0;}
	.st4{fill:#BFAE85;}
	.st5{fill:#3D3A39;}
	.st6{fill:#4C4A48;}
	.st7{fill:#312F2D;}
	.st8{fill:#252321;}
	.st9{fill:#B47100;}
</style>
<g>
	<rect x="160" class="st0" width="16" height="16"/>
	<rect x="144" y="16" class="st1" width="16" height="16"/>
	<polygon class="st2" points="0,176 0,192 16,192 16,208 48,208 48,224 80,224 80,240 128,240 128,256 176,256 176,240 192,240 
		192,224 208,224 208,176 224,176 224,128 240,128 240,96 224,96 224,80 256,80 256,32 240,32 240,16 208,16 208,0 176,0 176,16 
		160,16 160,32 144,32 144,64 128,64 128,96 112,96 112,112 96,112 96,128 80,128 80,144 48,144 48,160 16,160 16,176 	"/>
	<rect x="144" y="32" class="st3" width="16" height="16"/>
	<rect x="144" y="48" class="st3" width="16" height="16"/>
	<rect x="128" y="64" class="st3" width="16" height="16"/>
	<rect x="144" y="64" class="st3" width="16" height="16"/>
	<rect x="128" y="80" class="st3" width="16" height="16"/>
	<rect x="112" y="96" class="st3" width="16" height="16"/>
	<rect x="128" y="96" class="st3" width="16" height="16"/>
	<rect x="112" y="112" class="st3" width="16" height="16"/>
	<rect x="80" y="128" class="st3" width="16" height="16"/>
	<rect x="64" y="144" class="st3" width="16" height="16"/>
	<rect x="48" y="144" class="st3" width="16" height="16"/>
	<rect x="32" y="160" class="st3" width="16" height="16"/>
	<rect x="16" y="160" class="st3" width="16" height="16"/>
	<rect y="176" class="st3" width="16" height="16"/>
	<rect x="16" y="192" class="st3" width="16" height="16"/>
	<rect x="16" y="176" class="st3" width="16" height="16"/>
	<rect x="32" y="192" class="st4" width="16" height="16"/>
	<rect x="48" y="208" class="st4" width="16" height="16"/>
	<rect x="64" y="208" class="st4" width="16" height="16"/>
	<rect x="80" y="224" class="st4" width="16" height="16"/>
	<rect x="96" y="224" class="st4" width="16" height="16"/>
	<rect x="112" y="224" class="st4" width="32" height="16"/>
	<rect x="128" y="240" class="st4" width="16" height="16"/>
	<rect x="144" y="240" class="st4" width="16" height="16"/>
	<rect x="160" y="240" class="st4" width="16" height="16"/>
	<rect x="176" y="208" class="st4" width="16" height="32"/>
	<rect x="192" y="208" class="st4" width="16" height="16"/>
	<rect x="192" y="192" class="st4" width="16" height="16"/>
	<rect x="192" y="160" class="st4" width="16" height="32"/>
	<rect x="208" y="160" class="st4" width="16" height="16"/>
	<rect x="208" y="144" class="st4" width="16" height="16"/>
	<rect x="208" y="128" class="st4" width="16" height="16"/>
	<rect x="224" y="112" class="st4" width="16" height="16"/>
	<rect x="224" y="96" class="st4" width="16" height="16"/>
	<rect x="240" y="64" class="st4" width="16" height="16"/>
	<rect x="224" y="48" class="st4" width="16" height="16"/>
	<rect x="224" y="64" class="st4" width="16" height="16"/>
	<rect x="208" y="64" class="st4" width="16" height="16"/>
	<rect x="208" y="80" class="st4" width="16" height="16"/>
	<rect x="240" y="48" class="st4" width="16" height="16"/>
	<rect x="240" y="32" class="st3" width="16" height="32"/>
	<rect x="224" y="64" class="st3" width="16" height="16"/>
	<rect x="224" y="16" class="st3" width="16" height="16"/>
	<rect x="208" y="16" class="st3" width="16" height="16"/>
	<rect x="192" class="st3" width="16" height="16"/>
	<rect x="176" class="st3" width="16" height="16"/>
	<rect x="160" y="16" class="st3" width="16" height="16"/>
	<rect x="96" y="112" class="st3" width="16" height="16"/>
	<rect x="112" y="128" class="st3" width="16" height="16"/>
	<rect x="96" y="128" class="st3" width="16" height="16"/>
	<rect x="112" y="144" class="st3" width="16" height="16"/>
	<rect x="80" y="144" class="st3" width="16" height="16"/>
	<rect x="128" y="144" class="st3" width="16" height="16"/>
	<rect x="144" y="144" class="st3" width="16" height="16"/>
	<rect x="160" y="160" class="st3" width="16" height="16"/>
	<rect x="176" y="96" class="st3" width="16" height="16"/>
	<rect x="144" y="80" class="st3" width="16" height="16"/>
	<rect x="160" y="80" class="st3" width="16" height="16"/>
	<rect x="160" y="48" class="st3" width="16" height="16"/>
	<rect x="176" y="48" class="st3" width="16" height="16"/>
	<rect x="144" y="64" class="st3" width="16" height="16"/>
	<rect x="112" y="176" class="st3" width="16" height="16"/>
	<rect x="80" y="160" class="st3" width="16" height="16"/>
	<rect x="96" y="160" class="st3" width="16" height="16"/>
	<rect x="160" y="64" class="st5" width="16" height="16"/>
	<rect x="144" y="48" class="st6" width="16" height="16"/>
	<rect x="144" y="96" class="st6" width="16" height="16"/>
	<rect x="176" y="64" class="st7" width="16" height="16"/>
	<rect x="192" y="80" class="st8" width="16" height="16"/>
	<rect x="160" y="96" class="st5" width="16" height="16"/>
	<rect x="160" y="112" class="st5" width="16" height="16"/>
	<rect x="176" y="128" class="st8" width="16" height="16"/>
	<rect x="192" y="112" class="st8" width="16" height="16"/>
	<rect x="128" y="80" class="st6" width="16" height="16"/>
	<rect x="176" y="112" class="st5" width="16" height="16"/>
	<rect x="128" y="144" class="st5" width="16" height="16"/>
	<rect x="144" y="160" class="st8" width="16" height="16"/>
	<rect x="160" y="176" class="st8" width="16" height="16"/>
	<rect x="144" y="208" class="st8" width="16" height="16"/>
	<rect x="96" y="192" class="st5" width="16" height="16"/>
	<rect x="128" y="192" class="st8" width="16" height="16"/>
	<rect x="128" y="160" class="st5" width="16" height="16"/>
	<rect x="112" y="144" class="st5" width="16" height="16"/>
	<rect x="96" y="128" class="st6" width="16" height="16"/>
	<rect x="80" y="128" class="st6" width="16" height="16"/>
	<rect x="48" y="144" class="st6" width="16" height="16"/>
	<rect x="64" y="160" class="st6" width="16" height="16"/>
	<rect x="48" y="160" class="st6" width="16" height="16"/>
	<rect x="80" y="176" class="st5" width="16" height="16"/>
	<rect x="96" y="176" class="st5" width="16" height="16"/>
	<rect x="112" y="192" class="st5" width="16" height="16"/>
	<rect x="176" y="112" class="st8" width="16" height="16"/>
	<rect x="240" y="64" class="st1" width="16" height="16"/>
	<rect x="240" y="80" class="st9" width="16" height="16"/>
	<rect x="224" y="80" class="st1" width="16" height="16"/>
	<rect x="224" y="64" class="st0" width="16" height="16"/>
</g>
</svg>
