<?xml version="1.0" encoding="UTF-8"?>
<svg id="Calque_1" data-name="Calque 1" xmlns="http://www.w3.org/2000/svg" viewBox="0 0 607 256">
  <defs>
    <style>
      .cls-1 {
        fill: #f4f2f2;
        stroke-width: 0px;
      }
    </style>
  </defs>
  <path class="cls-1" d="m383,112v-32h-16v-32h-16v-16h-32v-16h-32v16h-32v16h-16v32h-16v32h-16v48h16v32h16v16h32v16h64v-16h32v-16h16v-32h16v-48h-16Zm0,32h-16v32h-16v16h-32v16h-32v-16h-32v-16h-16v-32h-16v-16h16v-32h16v-32h16v-16h64v16h16v32h16v32h16v16Z"/>
  <polygon class="cls-1" points="175 112 127 112 127 128 111 128 111 112 111 96 127 96 127 80 175 80 175 48 111 48 111 64 95 64 95 80 79 80 79 96 63 96 63 144 79 144 79 160 127 160 127 208 175 208 175 160 191 160 191 128 175 128 175 112"/>
  <polygon class="cls-1" points="527 112 479 112 479 128 463 128 463 112 463 96 479 96 479 80 527 80 527 48 463 48 463 64 447 64 447 80 431 80 431 96 415 96 415 144 431 144 431 160 479 160 479 208 527 208 527 160 543 160 543 128 527 128 527 112"/>
</svg>