<?xml version="1.0" encoding="utf-8"?>
<!-- Generator: Adobe Illustrator 28.0.0, SVG Export Plug-In . SVG Version: 6.00 Build 0)  -->
<svg version="1.1" id="Calque_1" xmlns="http://www.w3.org/2000/svg" xmlns:xlink="http://www.w3.org/1999/xlink" x="0px" y="0px"
	 viewBox="0 0 256 256" style="enable-background:new 0 0 256 256;" xml:space="preserve">
<style type="text/css">
	.st0{fill:#FFFFFF;}
	.st1{fill:#8C6951;}
	.st2{fill:#644B39;}
	.st3{fill:#3C2717;}
	.st4{fill:#513725;}
	.st5{fill:#FFE054;}
	.st6{fill:#CFC8C6;}
	.st7{fill:#F4F2F2;}
	.st8{fill:#8C8989;}
	.st9{fill:#312F2D;}
	.st10{fill:#B47100;}
	.st11{fill:#4C4A48;}
	.st12{fill:#3D3A39;}
	.st13{fill:#E9B123;}
	.st14{fill:#EA5297;}
	.st15{fill:#B9348B;}
</style>
<g>
	<rect x="32" y="0" class="st0" width="192" height="64"/>
	<rect x="80" y="208" class="st0" width="96" height="32"/>
	<rect x="96" y="192" class="st0" width="64" height="16"/>
	<rect x="64" y="240" class="st0" width="128" height="16"/>
	<rect x="48" y="64" class="st0" width="160" height="32"/>
	<rect x="64" y="96" class="st0" width="128" height="16"/>
	<rect x="96" y="112" class="st0" width="64" height="16"/>
	<rect x="112" y="112" class="st0" width="32" height="96"/>
	<rect x="224" y="16" class="st0" width="16" height="16"/>
	<rect x="16" y="16" class="st0" width="16" height="16"/>
	<rect x="240" y="32" class="st0" width="16" height="64"/>
	<rect y="32" class="st0" width="16" height="64"/>
	<rect x="224" y="96" class="st0" width="16" height="16"/>
	<rect x="176" y="160" class="st0" width="16" height="16"/>
	<rect x="64" y="160" class="st0" width="16" height="16"/>
	<rect x="160" y="128" class="st0" width="16" height="32"/>
	<rect x="80" y="128" class="st0" width="16" height="32"/>
	<rect x="176" y="112" class="st0" width="16" height="16"/>
	<rect x="16" y="96" class="st0" width="16" height="16"/>
	<rect x="192" y="112" class="st0" width="32" height="16"/>
	<rect x="32" y="112" class="st0" width="48" height="16"/>
	<rect x="112" y="144" class="st1" width="16" height="48"/>
	<rect x="112" y="128" class="st2" width="16" height="16"/>
	<rect x="128" y="128" class="st3" width="16" height="16"/>
	<rect x="128" y="144" class="st4" width="16" height="48"/>
	<rect x="32" y="0" class="st5" width="192" height="16"/>
	<rect x="16" y="16" class="st6" width="16" height="16"/>
	<rect x="32" y="0" class="st7" width="32" height="16"/>
	<rect x="32" y="16" class="st5" width="16" height="48"/>
	<rect x="48" y="64" class="st5" width="16" height="32"/>
	<rect y="32" class="st6" width="16" height="64"/>
	<rect x="16" y="96" class="st6" width="16" height="16"/>
	<rect x="64" y="160" class="st8" width="16" height="16"/>
	<rect x="96" y="192" class="st5" width="16" height="16"/>
	<rect x="64" y="240" class="st5" width="16" height="16"/>
	<rect x="64" y="96" class="st5" width="32" height="16"/>
	<rect x="208" y="16" class="st5" width="16" height="16"/>
	<rect x="80" y="128" class="st8" width="16" height="32"/>
	<rect x="80" y="208" class="st5" width="16" height="32"/>
	<rect x="32" y="112" class="st8" width="48" height="16"/>
	<rect x="176" y="112" class="st9" width="48" height="16"/>
	<rect x="224" y="96" class="st9" width="16" height="16"/>
	<rect x="160" y="96" class="st10" width="32" height="16"/>
	<rect x="176" y="160" class="st11" width="16" height="16"/>
	<rect x="144" y="192" class="st10" width="16" height="16"/>
	<rect x="96" y="112" class="st10" width="64" height="16"/>
	<rect x="160" y="128" class="st9" width="16" height="32"/>
	<rect x="160" y="208" class="st10" width="16" height="32"/>
	<rect x="240" y="32" class="st12" width="16" height="64"/>
	<rect x="224" y="16" class="st12" width="16" height="16"/>
	<rect x="208" y="32" class="st10" width="16" height="32"/>
	<rect x="192" y="64" class="st10" width="16" height="32"/>
	<rect x="48" y="16" class="st13" width="160" height="48"/>
	<rect x="64" y="64" class="st13" width="128" height="32"/>
	<rect x="96" y="96" class="st13" width="64" height="16"/>
	<rect x="80" y="16" class="st5" width="16" height="48"/>
	<rect x="160" y="16" class="st10" width="16" height="48"/>
	<rect x="96" y="64" class="st5" width="16" height="32"/>
	<rect x="144" y="64" class="st10" width="16" height="32"/>
	<rect x="112" y="96" class="st5" width="16" height="16"/>
	<rect x="48" y="16" class="st5" width="16" height="16"/>
	<rect x="160" y="48" class="st5" width="16" height="16"/>
	<rect x="128" y="96" class="st10" width="16" height="16"/>
	<rect x="112" y="192" class="st13" width="32" height="16"/>
	<rect x="96" y="208" class="st13" width="64" height="32"/>
	<rect x="80" y="240" class="st13" width="96" height="16"/>
	<rect x="112" y="16" class="st14" width="32" height="32"/>
	<rect x="112" y="16" class="st7" width="16" height="16"/>
	<rect x="176" class="st7" width="16" height="16"/>
	<rect x="192" y="16" class="st7" width="16" height="16"/>
	<rect x="208" y="0" class="st7" width="16" height="16"/>
	<rect x="32" y="48" class="st7" width="16" height="16"/>
	<rect x="64" y="160" class="st6" width="16" height="16"/>
	<rect x="48" y="80" class="st7" width="16" height="16"/>
	<rect x="32" y="16" class="st7" width="16" height="16"/>
	<rect x="80" y="16" class="st7" width="16" height="16"/>
	<rect x="96" y="192" class="st7" width="16" height="16"/>
	<rect x="112" y="192" class="st7" width="16" height="16"/>
	<rect x="80" y="208" class="st7" width="16" height="16"/>
	<rect x="64" y="240" class="st7" width="16" height="16"/>
	<rect x="80" y="32" class="st7" width="16" height="16"/>
	<rect x="128" y="32" class="st15" width="16" height="16"/>
	<rect x="96" y="208" class="st5" width="32" height="16"/>
	<rect x="128" y="192" class="st5" width="16" height="16"/>
	<rect x="112" y="240" class="st10" width="80" height="16"/>
</g>
</svg>
