<?xml version="1.0" encoding="utf-8"?>
<!-- Generator: Adobe Illustrator 28.0.0, SVG Export Plug-In . SVG Version: 6.00 Build 0)  -->
<svg version="1.1" id="Calque_1" xmlns="http://www.w3.org/2000/svg" xmlns:xlink="http://www.w3.org/1999/xlink" x="0px" y="0px"
	 viewBox="0 0 256 256" style="enable-background:new 0 0 256 256;" xml:space="preserve">
<style type="text/css">
	.st0{fill:#F4F2F2;}
</style>
<g>
	<g>
		<polygon class="st0" points="240,96 240,64 224,64 224,48 224,32 192,32 192,16 160,16 160,0 96,0 96,16 64,16 64,32 32,32 32,48 
			32,64 16,64 16,96 0,96 0,160 16,160 16,192 32,192 32,224 48,224 64,224 64,208 48,208 48,176 64,176 64,160 48,160 48,96 64,96 
			64,80 48,80 48,48 80,48 80,64 176,64 176,48 208,48 208,80 192,80 192,96 208,96 208,160 192,160 192,176 160,176 160,192 
			160,224 160,240 192,240 192,224 208,224 224,224 224,192 240,192 240,160 256,160 256,96 		"/>
		<polygon class="st0" points="80,192 80,208 96,208 96,192 96,176 64,176 64,192 		"/>
		<rect x="64" y="224" class="st0" width="32" height="16"/>
	</g>
	<rect x="80" y="32" class="st0" width="96" height="32"/>
	<rect x="208" y="80" class="st0" width="16" height="96"/>
	<rect x="32" y="80" class="st0" width="16" height="96"/>
	<rect x="48" y="160" class="st0" width="16" height="16"/>
	<rect x="64" y="176" class="st0" width="32" height="16"/>
	<rect x="80" y="192" class="st0" width="16" height="16"/>
	<rect x="160" y="176" class="st0" width="48" height="32"/>
	<rect x="192" y="160" class="st0" width="16" height="16"/>
	<rect x="192" y="80" class="st0" width="16" height="16"/>
	<rect x="48" y="80" class="st0" width="16" height="16"/>
	<rect x="112" y="16" class="st0" width="32" height="16"/>
	<rect x="16" y="112" class="st0" width="16" height="32"/>
	<rect x="224" y="112" class="st0" width="16" height="32"/>
	<rect x="208" y="64" class="st0" width="16" height="16"/>
	<rect x="176" y="32" class="st0" width="16" height="16"/>
	<rect x="64" y="32" class="st0" width="16" height="16"/>
	<rect x="32" y="64" class="st0" width="16" height="16"/>
	<rect x="32" y="176" class="st0" width="16" height="16"/>
	<rect x="208" y="176" class="st0" width="16" height="16"/>
	<rect x="160" y="208" class="st0" width="32" height="16"/>
</g>
</svg>
