<?xml version="1.0" encoding="utf-8"?>
<!-- Generator: Adobe Illustrator 28.0.0, SVG Export Plug-In . SVG Version: 6.00 Build 0)  -->
<svg version="1.1" id="Calque_1" xmlns="http://www.w3.org/2000/svg" xmlns:xlink="http://www.w3.org/1999/xlink" x="0px" y="0px"
	 viewBox="0 0 256 256" style="enable-background:new 0 0 256 256;" xml:space="preserve">
<style type="text/css">
	.st0{fill:#E9B123;}
	.st1{fill:#8C6951;}
	.st2{fill:#513725;}
	.st3{fill:#FFE054;}
	.st4{fill:#B47100;}
	.st5{fill:#644B39;}
	.st6{fill:#F4F2F2;}
</style>
<g>
	<path class="st0" d="M80,192v-16h160v-16l16,0v-48h-16V80h-32v16h-16V80h-32v32h-32H80V96V80H16v16H0v16v64v16h16v16h64V192z
		 M32,160v-32h32v32H32z"/>
	<rect x="8" y="136" transform="matrix(-1.836970e-16 1 -1 -1.836970e-16 168 120)" class="st1" width="32" height="16"/>
	<rect x="56" y="136" transform="matrix(-1.836970e-16 1 -1 -1.836970e-16 216 72)" class="st2" width="32" height="16"/>
	<rect x="16" y="192" transform="matrix(-1 -1.224647e-16 1.224647e-16 -1 96 400)" class="st2" width="64" height="16"/>
	<rect y="96" transform="matrix(6.123234e-17 -1 1 6.123234e-17 -96 112)" class="st1" width="16" height="16"/>
	<rect x="-32" y="144" transform="matrix(6.123234e-17 -1 1 6.123234e-17 -144 160)" class="st2" width="80" height="16"/>
	<rect x="96" y="112" class="st3" width="64" height="16"/>
	<rect x="16" y="80" transform="matrix(-1 -1.224647e-16 1.224647e-16 -1 96 176)" class="st1" width="64" height="16"/>
	<rect x="216" y="72" transform="matrix(-1.836970e-16 1 -1 -1.836970e-16 312 -136)" class="st3" width="16" height="32"/>
	<rect x="168" y="72" transform="matrix(-1.836970e-16 1 -1 -1.836970e-16 264 -88)" class="st3" width="16" height="32"/>
	<rect x="184" y="104" transform="matrix(-1.836970e-16 1 -1 -1.836970e-16 312 -88)" class="st3" width="32" height="16"/>
	<rect x="224" y="96" transform="matrix(-1.836970e-16 1 -1 -1.836970e-16 336 -128)" class="st3" width="16" height="16"/>
	<rect x="224" y="144" transform="matrix(-1.836970e-16 1 -1 -1.836970e-16 400 -96)" class="st4" width="48" height="16"/>
	<rect x="160" y="96" transform="matrix(-1.836970e-16 1 -1 -1.836970e-16 272 -64)" class="st3" width="16" height="16"/>
	
		<rect x="160" y="96" transform="matrix(-1.836970e-16 1 -1 -1.836970e-16 336 2.842171e-14)" class="st4" width="16" height="144"/>
	<rect x="96" y="144" transform="matrix(-1.836970e-16 1 -1 -1.836970e-16 256 48)" class="st4" width="16" height="16"/>
	<rect x="32" y="144" transform="matrix(-1.836970e-16 1 -1 -1.836970e-16 224 128)" class="st5" width="32" height="64"/>
	<rect x="32" y="80" transform="matrix(-1.836970e-16 1 -1 -1.836970e-16 160 64)" class="st5" width="32" height="64"/>
	<rect x="32" y="112" transform="matrix(-1 -1.224647e-16 1.224647e-16 -1 96 240)" class="st2" width="32" height="16"/>
	<rect x="32" y="160" transform="matrix(-1 -1.224647e-16 1.224647e-16 -1 96 336)" class="st1" width="32" height="16"/>
	<rect x="48" y="128" transform="matrix(6.123234e-17 -1 1 6.123234e-17 -48 224)" class="st1" width="80" height="16"/>
	<rect x="96" y="112" transform="matrix(6.123234e-17 -1 1 6.123234e-17 -16 224)" class="st1" width="16" height="16"/>
	<rect x="80" y="176" transform="matrix(-1 -1.224647e-16 1.224647e-16 -1 176 368)" class="st2" width="16" height="16"/>
	<rect x="96" y="160" transform="matrix(-1 -1.224647e-16 1.224647e-16 -1 208 336)" class="st2" width="16" height="16"/>
	<rect x="224" y="96" transform="matrix(-1.836970e-16 1 -1 -1.836970e-16 336 -128)" class="st6" width="16" height="16"/>
	<rect x="240" y="160" transform="matrix(-1.836970e-16 1 -1 -1.836970e-16 416 -80)" class="st6" width="16" height="16"/>
	<rect x="192" y="192" transform="matrix(-1.836970e-16 1 -1 -1.836970e-16 416 16)" class="st6" width="16" height="48"/>
	<rect x="112" y="48" transform="matrix(-1.836970e-16 1 -1 -1.836970e-16 176 -64)" class="st6" width="16" height="16"/>
	<rect x="96" y="32" transform="matrix(-1.836970e-16 1 -1 -1.836970e-16 144 -64)" class="st6" width="16" height="16"/>
	<rect x="128" y="64" transform="matrix(-1.836970e-16 1 -1 -1.836970e-16 208 -64)" class="st6" width="16" height="16"/>
	<rect x="96" y="64" transform="matrix(-1.836970e-16 1 -1 -1.836970e-16 176 -32)" class="st6" width="16" height="16"/>
	<rect x="128" y="32" transform="matrix(-1.836970e-16 1 -1 -1.836970e-16 176 -96)" class="st6" width="16" height="16"/>
	<rect x="128" y="112" transform="matrix(-1.836970e-16 1 -1 -1.836970e-16 256 -16)" class="st6" width="16" height="16"/>
	<rect x="240" y="48" transform="matrix(-1.836970e-16 1 -1 -1.836970e-16 304 -192)" class="st6" width="16" height="16"/>
	<rect x="112" y="192" transform="matrix(-1.836970e-16 1 -1 -1.836970e-16 320 80)" class="st6" width="16" height="16"/>
	<rect x="232" y="120" transform="matrix(-1.836970e-16 1 -1 -1.836970e-16 376 -120)" class="st3" width="32" height="16"/>
	<rect x="192" y="192" transform="matrix(-1 -1.224647e-16 1.224647e-16 -1 400 432)" class="st6" width="16" height="48"/>
</g>
</svg>
