<?xml version="1.0" encoding="utf-8"?>
<!-- Generator: Adobe Illustrator 28.0.0, SVG Export Plug-In . SVG Version: 6.00 Build 0)  -->
<svg version="1.1" id="Calque_1" xmlns="http://www.w3.org/2000/svg" xmlns:xlink="http://www.w3.org/1999/xlink" x="0px" y="0px"
	 viewBox="0 0 306 216" style="enable-background:new 0 0 306 216;" xml:space="preserve">
<style type="text/css">
	.st0{fill:#3D3A39;}
	.st1{fill:#B9348B;}
	.st2{fill:#EA5297;}
	.st3{fill:#ED6EA7;}
	.st4{fill:#201F1D;}
	.st5{fill:#312F2D;}
	.st6{fill:#F4F2F2;}
</style>
<polygon points="198,72 198,54 189,54 189,36 180,36 180,27 162,27 162,18 144,18 144,27 126,27 126,36 117,36 117,54 108,54 
	108,72 99,72 99,99 108,99 108,117 117,117 117,126 135,126 135,135 171,135 171,126 189,126 189,117 198,117 198,99 207,99 207,72 
	"/>
<g>
	<polygon class="st0" points="198,54 198,36 189,36 189,18 180,18 180,9 162,9 162,0 144,0 144,9 126,9 126,18 117,18 117,36 
		108,36 108,54 99,54 99,81 108,81 108,99 117,99 117,108 135,108 135,117 171,117 171,108 189,108 189,99 198,99 198,81 207,81 
		207,54 	"/>
	<polygon class="st1" points="144,18 144,9 126,9 126,18 117,18 117,36 126,36 126,27 135,27 135,18 	"/>
	<polygon class="st2" points="126,45 126,27 135,27 135,18 153,18 153,36 144,36 144,45 	"/>
	<rect x="144" y="18" class="st3" width="9" height="18"/>
	<rect x="126" y="36" class="st3" width="18" height="9"/>
	<rect x="144" class="st4" width="18" height="9"/>
	<rect x="162" y="9" class="st4" width="18" height="9"/>
	<rect x="117" y="99" class="st4" width="18" height="9"/>
	<rect x="108" y="81" class="st4" width="9" height="18"/>
	<rect x="108" y="36" class="st4" width="9" height="18"/>
	<rect x="180" y="18" class="st4" width="9" height="18"/>
	<rect x="189" y="36" class="st4" width="9" height="18"/>
	<rect x="189" y="81" class="st4" width="9" height="18"/>
	<rect x="99" y="54" class="st4" width="9" height="27"/>
	<rect x="198" y="54" class="st4" width="9" height="27"/>
	<rect x="171" y="99" class="st4" width="18" height="9"/>
	<rect x="135" y="108" class="st4" width="36" height="9"/>
	<rect x="171" y="9" class="st1" width="9" height="9"/>
	<rect x="180" y="18" class="st1" width="9" height="9"/>
	<rect x="180" y="90" class="st1" width="9" height="18"/>
	<rect x="144" y="90" class="st1" width="9" height="9"/>
	<rect x="144" y="108" class="st1" width="18" height="9"/>
	<rect x="99" y="72" class="st1" width="9" height="9"/>
	<rect x="99" y="63" class="st1" width="9" height="9"/>
	<rect x="171" y="45" class="st1" width="9" height="18"/>
	<rect x="189" y="81" class="st1" width="9" height="18"/>
	<rect x="153" y="81" class="st1" width="9" height="18"/>
	<rect x="171" y="18" class="st2" width="9" height="9"/>
	<rect x="162" y="45" class="st2" width="9" height="9"/>
	<rect x="180" y="81" class="st2" width="9" height="9"/>
	<rect x="189" y="72" class="st2" width="9" height="9"/>
	<rect x="171" y="81" class="st2" width="9" height="18"/>
	<rect x="144" y="81" class="st2" width="9" height="9"/>
	<rect x="135" y="81" class="st2" width="9" height="9"/>
	<rect x="135" y="90" class="st2" width="9" height="9"/>
	<rect x="126" y="54" class="st2" width="9" height="9"/>
	<rect x="108" y="72" class="st2" width="9" height="9"/>
	<rect x="171" y="27" class="st3" width="9" height="9"/>
	<rect x="162" y="54" class="st3" width="9" height="9"/>
	<rect x="135" y="54" class="st3" width="9" height="9"/>
	<rect x="144" y="72" class="st3" width="9" height="9"/>
	<rect x="126" y="63" class="st3" width="9" height="9"/>
	<rect x="108" y="63" class="st3" width="9" height="9"/>
	<polygon class="st5" points="153,81 162,81 162,99 135,99 135,108 171,108 171,81 189,81 189,72 198,72 198,54 189,54 189,36 
		180,36 180,45 180,45 180,63 153,63 	"/>
	<polygon class="st5" points="117,81 126,81 126,90 135,90 135,99 117,99 	"/>
	<rect x="153" y="9" class="st5" width="9" height="9"/>
	<rect x="162" y="18" class="st5" width="9" height="9"/>
	<rect x="144" y="27" class="st3" width="9" height="9"/>
</g>
<g>
	<rect x="243" y="126" class="st6" width="27" height="90"/>
	<rect x="279" y="126" class="st6" width="27" height="90"/>
	<polygon class="st6" points="9,135 0,135 0,207 9,207 9,216 72,216 72,198 27,198 27,180 63,180 63,162 27,162 27,144 72,144 
		72,126 9,126 	"/>
	<path class="st6" d="M225,126h-54v9h-9v81h27v-36h18v36h27v-81h-9V126z M189,162v-18h18v18H189z"/>
	<polygon class="st6" points="126,153 117,153 117,162 108,162 108,126 81,126 81,216 108,216 108,180 117,180 117,189 126,189 
		126,216 153,216 153,189 144,189 144,180 135,180 135,162 144,162 144,153 153,153 153,126 126,126 	"/>
</g>
</svg>
