<?xml version="1.0" encoding="utf-8"?>
<!-- Generator: Adobe Illustrator 28.0.0, SVG Export Plug-In . SVG Version: 6.00 Build 0)  -->
<svg version="1.1" id="Calque_1" xmlns="http://www.w3.org/2000/svg" xmlns:xlink="http://www.w3.org/1999/xlink" x="0px" y="0px"
	 viewBox="0 0 256 256" style="enable-background:new 0 0 256 256;" xml:space="preserve">
<style type="text/css">
	.st0{fill:#B18467;}
	.st1{fill:#F4F2F2;}
	.st2{fill:#312F2D;}
	.st3{fill:#CDA081;}
	.st4{fill:#513725;}
	.st5{fill:#8C6951;}
	.st6{fill:#3C2717;}
	.st7{fill:#00774F;}
	.st8{fill:#644B39;}
	.st9{fill:#3D3A39;}
	.st10{fill:#252321;}
</style>
<g>
	<rect x="80" y="16" class="st0" width="96" height="96"/>
	<rect x="208" y="192" class="st1" width="16" height="64"/>
	<rect x="32" y="192" class="st1" width="16" height="64"/>
	<rect x="48" y="160" class="st2" width="160" height="96"/>
	<rect x="80" y="0" class="st3" width="96" height="16"/>
	<rect x="80" y="112" class="st3" width="96" height="16"/>
	<rect x="152" y="72" transform="matrix(-1.836970e-16 1 -1 -1.836970e-16 264 -104)" class="st3" width="64" height="16"/>
	<rect x="168" y="24" transform="matrix(-1.836970e-16 1 -1 -1.836970e-16 216 -152)" class="st4" width="32" height="16"/>
	<rect x="136" y="24" transform="matrix(-1.836970e-16 1 -1 -1.836970e-16 184 -120)" class="st4" width="32" height="16"/>
	<rect x="112" y="-32" transform="matrix(-1.836970e-16 1 -1 -1.836970e-16 144 -112)" class="st4" width="32" height="96"/>
	<rect x="24" y="56" transform="matrix(-1.836970e-16 1 -1 -1.836970e-16 136 -8)" class="st0" width="96" height="16"/>
	<rect x="64" y="16" transform="matrix(-1.836970e-16 1 -1 -1.836970e-16 112 -48)" class="st4" width="32" height="32"/>
	<rect x="80" y="112" class="st5" width="96" height="16"/>
	<rect x="96" y="32" class="st5" width="48" height="16"/>
	<rect x="160" y="32" class="st5" width="16" height="16"/>
	<rect x="144" y="48" class="st5" width="32" height="16"/>
	<rect x="144" y="32" class="st6" width="16" height="16"/>
	<rect x="96" y="16" class="st6" width="48" height="16"/>
	<rect x="176" y="32" class="st6" width="16" height="16"/>
	<rect x="160" y="16" class="st6" width="16" height="16"/>
	<rect x="80" y="32" class="st6" width="16" height="16"/>
	<rect x="80" y="48" class="st5" width="32" height="16"/>
	<rect x="176" y="80" class="st5" width="16" height="32"/>
	<rect x="64" y="48" class="st3" width="16" height="64"/>
	<rect x="96" y="48" class="st1" width="16" height="32"/>
	<rect x="144" y="48" class="st1" width="16" height="32"/>
	<rect x="144" y="64" class="st7" width="16" height="16"/>
	<rect x="96" y="64" class="st7" width="16" height="16"/>
	<rect x="64" y="48" class="st6" width="16" height="16"/>
	<rect x="112" y="96" class="st8" width="32" height="16"/>
	<rect x="112" y="80" class="st3" width="32" height="16"/>
	<rect x="144" y="96" class="st5" width="16" height="16"/>
	<rect x="96" y="96" class="st5" width="16" height="16"/>
	<rect x="80" y="0" class="st8" width="48" height="16"/>
	<rect x="64" y="16" class="st8" width="16" height="16"/>
	<rect x="160" y="0" class="st8" width="16" height="16"/>
	<rect x="176" y="16" class="st8" width="16" height="16"/>
	<rect x="64" y="144" class="st9" width="48" height="16"/>
	<rect x="144" y="144" class="st9" width="48" height="16"/>
	<rect x="192" y="160" class="st10" width="16" height="48"/>
	<rect x="208" y="192" class="st10" width="16" height="64"/>
	<rect x="48" y="160" class="st9" width="16" height="48"/>
	<rect x="48" y="240" class="st9" width="16" height="16"/>
	<rect x="192" y="160" class="st9" width="16" height="16"/>
	<rect x="208" y="192" class="st9" width="16" height="16"/>
	<rect x="32" y="192" class="st9" width="16" height="64"/>
	<rect x="192" y="240" class="st10" width="16" height="16"/>
	<rect x="176" y="160" class="st10" width="16" height="16"/>
	<rect x="96" y="160" class="st9" width="64" height="16"/>
</g>
</svg>
