<?xml version="1.0" encoding="utf-8"?>
<!-- Generator: Adobe Illustrator 28.0.0, SVG Export Plug-In . SVG Version: 6.00 Build 0)  -->
<svg version="1.1" id="Calque_1" xmlns="http://www.w3.org/2000/svg" xmlns:xlink="http://www.w3.org/1999/xlink" x="0px" y="0px"
	 viewBox="0 0 256 256" style="enable-background:new 0 0 256 256;" xml:space="preserve">
<style type="text/css">
	.st0{fill:#E1DCDB;}
	.st1{fill:#4C4A48;}
	.st2{fill:#8C8989;}
	.st3{fill:#252321;}
	.st4{fill:#312F2D;}
	.st5{fill:#161412;}
	.st6{fill:#ED6EA7;}
	.st7{fill:#B9348B;}
	.st8{fill:#F4F2F2;}
	.st9{fill:#EA5297;}
</style>
<g>
	<rect x="16" y="64" class="st0" width="224" height="16"/>
	<rect x="16" y="192" class="st1" width="224" height="16"/>
	<rect y="144" class="st2" width="16" height="48"/>
	<rect x="16" y="128" class="st2" width="224" height="16"/>
	<rect x="240" y="144" class="st1" width="16" height="48"/>
	<rect x="240" y="80" class="st2" width="16" height="48"/>
	<rect y="80" class="st0" width="16" height="48"/>
	<rect y="80" class="st0" width="16" height="48"/>
	<rect x="16" y="128" class="st0" width="16" height="16"/>
	<rect y="144" class="st0" width="16" height="16"/>
	<rect x="240" y="80" class="st0" width="16" height="16"/>
	<rect x="16" y="192" class="st2" width="16" height="16"/>
	<rect x="16" y="80" class="st3" width="224" height="16"/>
	<rect x="16" y="96" class="st3" width="16" height="32"/>
	<rect x="224" y="96" class="st4" width="16" height="32"/>
	<rect x="32" y="112" class="st4" width="192" height="16"/>
	<rect x="32" y="96" class="st5" width="192" height="16"/>
	<rect x="16" y="144" class="st3" width="224" height="16"/>
	<rect x="16" y="160" class="st3" width="16" height="32"/>
	<rect x="224" y="160" class="st4" width="16" height="32"/>
	<rect x="32" y="176" class="st4" width="192" height="16"/>
	<rect x="32" y="160" class="st5" width="192" height="16"/>
	<rect x="32" y="96" class="st6" width="16" height="16"/>
	<rect x="64" y="96" class="st7" width="16" height="16"/>
	<rect x="96" y="96" class="st8" width="16" height="16"/>
	<rect x="32" y="160" class="st8" width="16" height="16"/>
	<rect x="64" y="160" class="st6" width="16" height="16"/>
	<rect x="96" y="160" class="st7" width="16" height="16"/>
	<rect x="208" y="112" class="st9" width="16" height="16"/>
	<rect x="208" y="96" class="st7" width="16" height="16"/>
	<rect x="192" y="96" class="st8" width="16" height="16"/>
	<rect x="192" y="112" class="st7" width="16" height="16"/>
	<rect x="208" y="176" class="st8" width="16" height="16"/>
	<rect x="208" y="160" class="st7" width="16" height="16"/>
	<rect x="192" y="160" class="st6" width="16" height="16"/>
	<rect x="192" y="176" class="st7" width="16" height="16"/>
	<rect x="176" y="96" class="st4" width="16" height="32"/>
	<rect x="200" y="72" transform="matrix(-1.836970e-16 1 -1 -1.836970e-16 296 -120)" class="st4" width="16" height="32"/>
	<rect x="200" y="136" transform="matrix(-1.836970e-16 1 -1 -1.836970e-16 360 -56)" class="st4" width="16" height="32"/>
	<rect x="176" y="160" class="st4" width="16" height="32"/>
</g>
</svg>
