<?xml version="1.0" encoding="utf-8"?>
<!-- Generator: Adobe Illustrator 28.0.0, SVG Export Plug-In . SVG Version: 6.00 Build 0)  -->
<svg version="1.1" id="Calque_1" xmlns="http://www.w3.org/2000/svg" xmlns:xlink="http://www.w3.org/1999/xlink" x="0px" y="0px"
	 viewBox="0 0 256 256" style="enable-background:new 0 0 256 256;" xml:space="preserve">
<style type="text/css">
	.st0{fill:#B9348B;}
	.st1{fill:#8C6951;}
	.st2{fill:#EA5297;}
	.st3{fill:#161412;}
	.st4{fill:#252321;}
	.st5{fill:#B18467;}
	.st6{fill:#513725;}
	.st7{fill:#644B39;}
	.st8{fill:#3D3A39;}
	.st9{fill:#312F2D;}
	.st10{fill:#CDA081;}
	.st11{fill:#ED6EA7;}
	.st12{fill:#F4F2F2;}
</style>
<g>
	<polygon class="st0" points="208,64 208,80 192,80 192,96 208,96 208,80 224,80 224,96 224,96 208,96 208,112 192,112 192,128 
		64,128 64,96 64,64 80,64 80,48 96,48 96,16 112,16 112,0 128,0 128,32 144,32 144,16 160,16 160,48 176,48 176,64 192,64 192,48 
		208,48 	"/>
	<rect x="32" y="144" class="st1" width="192" height="32"/>
	<rect x="16" y="176" class="st1" width="224" height="32"/>
	<rect x="224" y="160" class="st1" width="16" height="16"/>
	<rect x="16" y="208" class="st1" width="208" height="16"/>
	<rect x="128" y="224" class="st1" width="80" height="16"/>
	<rect x="112" y="240" class="st1" width="48" height="16"/>
	<rect x="32" y="224" class="st1" width="64" height="16"/>
	<rect x="48" y="240" class="st1" width="32" height="16"/>
	<rect x="176" y="240" class="st1" width="16" height="16"/>
	<rect x="48" y="128" class="st1" width="160" height="16"/>
	<rect x="80" y="64" class="st2" width="96" height="48"/>
	<rect x="48" y="96" class="st1" width="48" height="32"/>
	<rect x="128" y="96" class="st1" width="48" height="32"/>
	<rect x="96" y="112" class="st1" width="32" height="16"/>
	<rect x="96" y="48" class="st2" width="48" height="16"/>
	<rect x="176" y="80" class="st2" width="16" height="48"/>
	<rect x="192" y="64" class="st2" width="16" height="16"/>
	<rect x="112" y="32" class="st2" width="16" height="16"/>
	<rect x="192" y="96" class="st2" width="16" height="16"/>
	<rect x="160" y="128" class="st2" width="16" height="16"/>
	<rect x="144" y="112" class="st3" width="16" height="16"/>
	<rect x="64" y="112" class="st3" width="16" height="16"/>
	<rect x="96" y="144" class="st4" width="32" height="16"/>
	<rect x="128" y="160" class="st4" width="16" height="16"/>
	<rect x="80" y="160" class="st4" width="16" height="16"/>
	<rect x="64" y="144" class="st4" width="16" height="16"/>
	<rect x="144" y="144" class="st4" width="16" height="16"/>
	<polygon class="st5" points="80,160 48,160 48,192 64,192 64,208 64,224 144,224 144,208 160,208 160,160 144,160 144,176 128,176 
		128,160 96,160 96,176 80,176 	"/>
	<rect x="64" y="224" class="st6" width="32" height="16"/>
	<rect x="48" y="192" class="st7" width="16" height="32"/>
	<rect x="128" y="224" class="st7" width="16" height="16"/>
	<rect x="176" y="208" class="st7" width="16" height="32"/>
	<rect x="144" y="208" class="st7" width="16" height="16"/>
	<rect x="32" y="176" class="st7" width="16" height="16"/>
	<rect x="144" y="176" class="st8" width="16" height="16"/>
	<rect x="64" y="176" class="st8" width="16" height="16"/>
	<rect x="160" y="192" class="st7" width="16" height="16"/>
	<rect x="144" y="80" class="st9" width="16" height="16"/>
	<rect x="128" y="96" class="st8" width="16" height="16"/>
	<rect x="192" y="160" class="st7" width="16" height="48"/>
	<rect x="176" y="144" class="st7" width="16" height="16"/>
	<rect x="208" y="144" class="st7" width="16" height="16"/>
	<rect x="224" y="176" class="st7" width="16" height="32"/>
	<rect x="208" y="208" class="st7" width="16" height="16"/>
	<rect x="192" y="224" class="st7" width="16" height="16"/>
	<rect x="176" y="240" class="st7" width="16" height="16"/>
	<rect x="112" y="240" class="st7" width="48" height="16"/>
	<rect x="16" y="176" class="st7" width="16" height="48"/>
	<rect x="32" y="224" class="st7" width="16" height="16"/>
	<rect x="48" y="240" class="st7" width="32" height="16"/>
	<rect x="32" y="144" class="st7" width="16" height="32"/>
	<rect x="48" y="96" class="st7" width="16" height="48"/>
	<rect x="144" y="96" class="st7" width="32" height="16"/>
	<rect x="64" y="96" class="st7" width="32" height="16"/>
	<rect x="96" y="112" class="st7" width="32" height="16"/>
	<rect x="160" y="112" class="st7" width="16" height="16"/>
	<rect x="176" y="128" class="st7" width="32" height="16"/>
	<rect x="160" y="160" class="st5" width="16" height="32"/>
	<rect x="160" y="224" class="st7" width="16" height="16"/>
	<rect x="176" y="224" class="st6" width="16" height="16"/>
	<rect x="128" y="224" class="st6" width="16" height="16"/>
	<rect x="176" y="128" class="st6" width="16" height="16"/>
	<rect x="128" y="112" class="st6" width="16" height="16"/>
	<rect x="80" y="112" class="st6" width="16" height="16"/>
	<rect x="32" y="176" class="st6" width="16" height="16"/>
	<rect x="160" y="224" class="st6" width="16" height="16"/>
	<rect x="80" y="176" class="st10" width="48" height="16"/>
	<rect x="144" y="160" class="st10" width="16" height="16"/>
	<rect x="64" y="192" class="st10" width="32" height="16"/>
	<rect x="48" y="176" class="st10" width="16" height="16"/>
	<rect x="96" y="160" class="st10" width="32" height="16"/>
	<rect x="48" y="160" class="st10" width="32" height="16"/>
	<rect x="96" y="64" class="st11" width="16" height="48"/>
	<rect x="80" y="80" class="st11" width="16" height="16"/>
	<rect x="112" y="64" class="st11" width="16" height="32"/>
	<rect x="128" y="80" class="st11" width="16" height="16"/>
	<rect x="160" y="128" class="st11" width="16" height="16"/>
	<rect x="176" y="112" class="st11" width="16" height="16"/>
	<rect x="96" y="96" class="st12" width="16" height="16"/>
	<rect x="112" y="96" class="st12" width="16" height="16"/>
	<rect x="112" y="64" class="st12" width="16" height="16"/>
	<rect x="96" y="80" class="st12" width="16" height="16"/>
</g>
</svg>
