<?xml version="1.0" encoding="utf-8"?>
<!-- Generator: Adobe Illustrator 28.0.0, SVG Export Plug-In . SVG Version: 6.00 Build 0)  -->
<svg version="1.1" id="Calque_1" xmlns="http://www.w3.org/2000/svg" xmlns:xlink="http://www.w3.org/1999/xlink" x="0px" y="0px"
	 viewBox="0 0 256 256" style="enable-background:new 0 0 256 256;" xml:space="preserve">
<style type="text/css">
	.st0{fill:#644B39;}
	.st1{fill:#00774F;}
	.st2{fill:#513725;}
	.st3{fill:#8C6951;}
	.st4{fill:#009262;}
	.st5{fill:#00603F;}
	.st6{fill:#ED6EA7;}
	.st7{fill:#EA5297;}
</style>
<g>
	<polygon class="st0" points="256,112.48 0,112.48 0,224.48 16,224.48 16,240.48 240,240.48 240,224.48 256,224.48 	"/>
	<polygon class="st1" points="16,80.48 16,96.48 0,96.48 0,128.48 0,144.48 16,144.48 16,128.48 32,128.48 32,144.48 80,144.48 
		80,128.48 80,112.48 96,112.48 96,128.48 96,144.48 112,144.48 112,128.48 128,128.48 128,144.48 128,160.48 144,160.48 
		144,144.48 160,144.48 160,160.48 176,160.48 176,144.48 192,144.48 192,128.48 208,128.48 208,144.48 240,144.48 240,128.48 
		256,128.48 256,96.48 240,96.48 240,80.48 	"/>
	<rect x="16" y="224.48" class="st2" width="224" height="16"/>
	<rect x="240" y="176.48" class="st2" width="16" height="48"/>
	<rect y="144.48" class="st3" width="16" height="64"/>
	<rect x="16" y="128.48" class="st2" width="16" height="32"/>
	<rect x="80" y="112.48" class="st2" width="16" height="32"/>
	<rect x="112" y="128.48" class="st2" width="16" height="16"/>
	<rect x="144" y="144.48" class="st2" width="16" height="32"/>
	<rect x="192" y="128.48" class="st2" width="16" height="32"/>
	<rect x="208" y="144.48" class="st2" width="32" height="16"/>
	<rect x="176" y="144.48" class="st2" width="16" height="16"/>
	<rect x="240" y="128.48" class="st2" width="16" height="16"/>
	<rect x="160" y="160.48" class="st2" width="16" height="16"/>
	<rect x="224" y="208.48" class="st2" width="16" height="16"/>
	<rect x="128" y="160.48" class="st2" width="16" height="16"/>
	<rect x="96" y="144.48" class="st2" width="16" height="16"/>
	<rect y="208.48" class="st2" width="32" height="16"/>
	<rect x="32" y="144.48" class="st2" width="48" height="16"/>
	<rect x="16" y="80.48" class="st4" width="224" height="16"/>
	<rect x="240" y="96.48" class="st4" width="16" height="16"/>
	<rect x="16" y="96.48" class="st4" width="32" height="16"/>
	<rect x="208" y="128.48" class="st5" width="32" height="16"/>
	<rect x="32" y="128.48" class="st5" width="48" height="16"/>
	<rect x="96" y="112.48" class="st5" width="16" height="32"/>
	<rect x="80" y="96.48" class="st5" width="16" height="16"/>
	<rect x="64" y="112.48" class="st5" width="16" height="16"/>
	<rect x="128" y="144.48" class="st5" width="16" height="16"/>
	<rect x="112" y="112.48" class="st5" width="16" height="16"/>
	<rect x="128" y="128.48" class="st5" width="16" height="16"/>
	<rect x="16" y="112.48" class="st5" width="16" height="16"/>
	<rect y="128.48" class="st5" width="16" height="16"/>
	<rect x="144" y="128.48" class="st5" width="16" height="16"/>
	<rect x="160" y="144.48" class="st5" width="16" height="16"/>
	<rect x="224" y="112.48" class="st5" width="32" height="16"/>
	<rect x="176" y="128.48" class="st5" width="16" height="16"/>
	<rect y="96.48" class="st4" width="16" height="32"/>
	<rect x="48" y="48.48" class="st1" width="16" height="32"/>
	<rect x="160" y="64.48" class="st1" width="16" height="16"/>
	<rect x="176" y="48.48" class="st6" width="16" height="16"/>
	<rect x="112" y="64.48" class="st1" width="16" height="16"/>
	<rect x="32" y="32.48" class="st7" width="16" height="16"/>
</g>
</svg>
